<svg width="39" height="49" viewBox="0 0 39 49" fill="none" xmlns="http://www.w3.org/2000/svg">
<path d="M0.910156 7.07592H7.93519V14.101H0.910156V7.07592ZM7.93519 26.5347L0.910156 28.1499V21.1248H7.93519V26.5347ZM7.93519 14.101H14.9602V21.126H7.93519V14.101ZM14.9591 7.07592H21.9841V14.101H14.9591V7.07592ZM7.93519 4.40613H14.9602V7.07592H7.93519V4.40613Z" fill="white"/>
<path d="M21.984 28.1499L14.959 26.4515V21.1248H21.984V28.1499ZM21.984 14.101H29.0091V21.126H21.984V14.101ZM29.0091 10.5884H36.0341V14.101H29.0091V10.5884ZM29.0091 21.1248H36.0341V28.1499H29.0091V21.1248Z" fill="white"/>
<path d="M36.0345 14.101H38.0757V21.1261H36.0345V14.101ZM21.9844 28.1499H29.0094V30.4101H21.9844V28.1499ZM36.0345 28.1499H38.5076V30.9637H36.0345V28.1499Z" fill="white"/>
<path d="M0.910156 14.1009H7.93519V21.1259H0.910156V14.1009ZM7.93519 7.07587H14.9602V14.1009H7.93519V7.07587ZM7.93519 21.1248H14.9602V27.1409H7.93519V21.1248ZM7.93519 7.07587H0.910156L1.71074 6.34902L7.93519 5.62217V7.07587ZM21.9841 7.07587H14.9591V5.18091L21.9841 6.31859V7.07587Z" fill="black"/>
<path d="M14.96 14.1009H21.985V21.1259H14.96V14.1009ZM29.01 14.1009H21.985V8.68872L29.01 10.2349V14.1009ZM21.985 21.1247H29.01V28.1498H21.985V21.1247ZM29.01 14.1009H36.0351V21.1259H29.01V14.1009ZM36.0351 10.6352H38.0763V14.0997H36.0351V10.6352ZM36.0351 21.1247H38.2695V28.1498H36.0351V21.1247ZM29.01 28.1498H36.0351V32.2159H29.01V28.1498Z" fill="black"/>
<path d="M1.7601 7.33335C5.13801 5.22888 11.6176 2.37883 18.6333 5.59172C22.9511 7.56978 25.2276 11.0905 36.2369 10.4069C37.1615 10.3496 37.9457 11.1057 37.9457 12.0573V29.7615C37.9457 30.4907 37.4506 31.0221 36.8162 31.3463C34.5374 32.5121 28.3059 32.4418 18.6333 27.8303C14.6947 25.9529 8.60254 24.8245 1.71094 29.518" stroke="#14151D" stroke-width="2.05542" stroke-miterlimit="10" stroke-linecap="round" stroke-linejoin="round"/>
<path d="M1.46191 1.93768L1.46191 47.157" stroke="#14151D" stroke-width="2.05542" stroke-miterlimit="10" stroke-linecap="round"/>
</svg>
