<svg width="45" height="45" viewBox="0 0 45 45" fill="none" xmlns="http://www.w3.org/2000/svg">
<path d="M22.8992 43.0415C34.4526 43.0415 43.8179 33.6761 43.8179 22.1227C43.8179 10.5693 34.4526 1.20398 22.8992 1.20398C11.3458 1.20398 1.98047 10.5693 1.98047 22.1227C1.98047 33.6761 11.3458 43.0415 22.8992 43.0415Z" stroke="#14151D" stroke-width="2.05758"/>
<path d="M1.98047 18.8177C5.13397 17.3293 7.46641 17.1212 8.97779 18.1954C11.2443 19.8061 11.5278 26.3736 16.6843 23.2357C21.8397 20.0969 14.4763 18.8177 16.0745 14.2721C17.6727 9.72538 22.9076 13.2575 23.4274 8.2778C23.7747 4.958 19.8043 3.68719 11.5142 4.46641" stroke="#14151D" stroke-width="2.05758"/>
<path d="M35.4499 5.38782C29.4734 10.606 27.3858 13.7564 29.1879 14.8399C31.8906 16.4664 33.0369 14.1768 36.3358 14.8399C39.6337 15.5031 38.9193 19.9745 37.1851 19.9745C35.4499 19.9745 26.4653 18.8302 26.9182 24.0735C27.3701 29.3168 32.7755 30.0928 32.7755 33.0225C32.7755 34.9753 31.5789 37.9646 29.1879 41.9893M4.18164 31.4588C4.89427 31.1452 5.6108 30.8404 6.33104 30.5447C10.3548 28.9193 13.3409 28.5365 15.2884 29.3952C18.7317 30.915 17.4075 33.9837 18.4869 35.1144C19.5642 36.245 22.2586 35.9166 22.2586 38.0671C22.2586 39.501 21.7774 41.1212 20.8141 42.9265" stroke="#14151D" stroke-width="2.05758" stroke-linecap="round"/>
</svg>
