<svg width="37" height="38" viewBox="0 0 37 38" fill="none" xmlns="http://www.w3.org/2000/svg">
<path d="M6.20118 31.2132C3.80305 28.8153 2.16989 25.76 1.50822 22.4338C0.846562 19.1076 1.18612 15.6599 2.48396 12.5267C3.7818 9.39347 5.97962 6.7155 8.79949 4.83143C11.6193 2.94736 14.9346 1.94181 18.326 1.94196M30.4507 6.96368C32.8489 9.36167 34.482 12.4169 35.1437 15.7431C35.8054 19.0693 35.4658 22.517 34.168 25.6502C32.8701 28.7835 30.6723 31.4614 27.8524 33.3455C25.0326 35.2296 21.7173 36.2351 18.326 36.235" stroke="#14151D" stroke-width="2.05758" stroke-linecap="round" stroke-linejoin="round"/>
<path d="M27.8263 8.6617C29.3618 8.6617 30.6066 7.41688 30.6066 5.88132C30.6066 4.34577 29.3618 3.10095 27.8263 3.10095C26.2907 3.10095 25.0459 4.34577 25.0459 5.88132C25.0459 7.41688 26.2907 8.6617 27.8263 8.6617Z" stroke="#14151D" stroke-width="2.05758" stroke-linecap="round" stroke-linejoin="round"/>
<path d="M8.82627 35.076C10.3618 35.076 11.6066 33.8312 11.6066 32.2956C11.6066 30.7601 10.3618 29.5153 8.82627 29.5153C7.29071 29.5153 6.0459 30.7601 6.0459 32.2956C6.0459 33.8312 7.29071 35.076 8.82627 35.076Z" stroke="#14151D" stroke-width="2.05758" stroke-linecap="round" stroke-linejoin="round"/>
<path d="M14.6963 15.8341L17.4775 21.3957L26.7454 20.4689L21.1847 9.3457L14.6963 15.8341Z" stroke="#14151D" stroke-width="2.05758" stroke-linecap="round" stroke-linejoin="round"/>
<path d="M16.6579 21.8689L18.9749 26.5029L17.1213 27.4297L14.8044 22.7957M14.6962 15.8342L10.989 17.6878C9.87495 18.2444 9.96904 20.2818 10.5256 21.3959C11.0822 22.5099 12.6553 23.806 13.7703 23.2494L17.4774 21.3959L14.6962 15.8342Z" stroke="#14151D" stroke-width="2.05758" stroke-linecap="round" stroke-linejoin="round"/>
</svg>
