<svg width="38" height="36" viewBox="0 0 38 36" fill="none" xmlns="http://www.w3.org/2000/svg">
<path d="M26.546 30.7807L25.4925 22.3462C25.3432 21.1516 24.7626 20.0526 23.8599 19.256C22.9572 18.4593 21.7945 18.0199 20.5905 18.0204H16.9626C15.7592 18.0207 14.5974 18.4605 13.6953 19.257C12.7933 20.0536 12.2132 21.1521 12.0639 22.3462L11.0088 30.7807C10.9509 31.2441 10.9922 31.7145 11.1301 32.1607C11.2679 32.6068 11.4991 33.0186 11.8083 33.3686C12.1175 33.7185 12.4976 33.9987 12.9234 34.1905C13.3492 34.3823 13.8109 34.4814 14.2779 34.481H23.2786C23.7454 34.4811 24.207 34.3819 24.6325 34.19C25.0581 33.9981 25.438 33.7179 25.7471 33.368C26.0561 33.018 26.2871 32.6063 26.4249 32.1603C26.5626 31.7142 26.6039 31.2439 26.546 30.7807V30.7807Z" stroke="#14151D" stroke-width="2.05758" stroke-linecap="round" stroke-linejoin="round"/>
<path d="M18.778 11.4361C21.5053 11.4361 23.7162 9.22518 23.7162 6.49789C23.7162 3.7706 21.5053 1.55969 18.778 1.55969C16.0507 1.55969 13.8398 3.7706 13.8398 6.49789C13.8398 9.22518 16.0507 11.4361 18.778 11.4361Z" stroke="#14151D" stroke-width="2.05758"/>
<path d="M5.61049 16.3743C7.42868 16.3743 8.90262 14.9004 8.90262 13.0822C8.90262 11.264 7.42868 9.79004 5.61049 9.79004C3.7923 9.79004 2.31836 11.264 2.31836 13.0822C2.31836 14.9004 3.7923 16.3743 5.61049 16.3743Z" stroke="#14151D" stroke-width="2.05758"/>
<path d="M31.9464 16.3743C33.7646 16.3743 35.2386 14.9004 35.2386 13.0822C35.2386 11.264 33.7646 9.79004 31.9464 9.79004C30.1282 9.79004 28.6543 11.264 28.6543 13.0822C28.6543 14.9004 30.1282 16.3743 31.9464 16.3743Z" stroke="#14151D" stroke-width="2.05758"/>
<path d="M5.60999 21.3124H5.1063C4.32699 21.3123 3.57291 21.5887 2.97823 22.0924C2.38354 22.596 1.98681 23.2943 1.85861 24.063L1.31047 27.3551C1.23181 27.8268 1.25685 28.31 1.38384 28.771C1.51083 29.232 1.73672 29.6598 2.04582 30.0247C2.35491 30.3895 2.73977 30.6827 3.17364 30.8837C3.60751 31.0848 4.07997 31.1889 4.55816 31.1888H10.5482M31.947 21.3124H32.4507C33.23 21.3123 33.9841 21.5887 34.5788 22.0924C35.1735 22.596 35.5702 23.2943 35.6984 24.063L36.2465 27.3551C36.3252 27.8268 36.3002 28.31 36.1732 28.771C36.0462 29.232 35.8203 29.6598 35.5112 30.0247C35.2021 30.3895 34.8172 30.6827 34.3834 30.8837C33.9495 31.0848 33.477 31.1889 32.9989 31.1888H27.0088" stroke="#14151D" stroke-width="2.05758" stroke-linecap="round" stroke-linejoin="round"/>
</svg>
