<svg width="62" height="62" viewBox="0 0 62 62" fill="none" xmlns="http://www.w3.org/2000/svg">
<path d="M10.7002 7.8C10.7002 6.26174 11.3113 4.78649 12.399 3.69878C13.4867 2.61107 14.9619 2 16.5002 2H45.5002C47.0384 2 48.5137 2.61107 49.6014 3.69878C50.6891 4.78649 51.3002 6.26174 51.3002 7.8V22.3C51.3002 27.6839 49.1614 32.8473 45.3545 36.6543C41.5475 40.4613 36.3841 42.6 31.0002 42.6V42.6C25.6163 42.6 20.4529 40.4613 16.6459 36.6543C12.8389 32.8473 10.7002 27.6839 10.7002 22.3V7.8ZM22.3002 60H39.7002L31.0002 45.5L22.3002 60Z" stroke="#14151D" stroke-width="3" stroke-linecap="round" stroke-linejoin="round"/>
<path d="M51.3 7.79999H54.2C55.7383 7.79999 57.2135 8.41106 58.3012 9.49877C59.3889 10.5865 60 12.0617 60 13.6V15.4473C60.0002 18.0827 59.2821 20.6684 57.923 22.9263C56.5638 25.1842 54.615 27.029 52.286 28.2624L49.85 29.55M10.7 7.79999H7.8C6.26174 7.79999 4.78649 8.41106 3.69878 9.49877C2.61107 10.5865 2 12.0617 2 13.6V17.1931C1.99995 19.3013 2.57446 21.3697 3.66177 23.176C4.74909 24.9822 6.30808 26.4579 8.1712 27.4446L11.5 29.55C10 24 10.7 7.79999 10.7 7.79999Z" stroke="#14151D" stroke-width="3" stroke-linejoin="round"/>
</svg>
